<svg width="173" height="173" viewBox="0 0 173 173" fill="none" xmlns="http://www.w3.org/2000/svg">
<path d="M123.022 86.5504C123.11 97.2096 131.994 105.778 142.865 105.688C153.736 105.598 162.477 96.8842 162.389 86.2251C162.3 75.5659 153.416 66.9978 142.546 67.0877C131.675 67.1775 122.934 75.8913 123.022 86.5504ZM113.18 86.6318C113.048 70.6431 126.16 57.5724 142.466 57.4376C158.772 57.3029 172.098 70.155 172.23 86.1437C172.362 102.132 159.251 115.203 142.944 115.338C126.638 115.473 113.312 102.62 113.18 86.6318Z" fill="white"/>
<path d="M67.3909 143.467C67.4789 154.126 76.3629 162.694 87.2337 162.604C98.1045 162.514 106.846 153.801 106.758 143.141C106.669 132.482 97.7855 123.914 86.9147 124.004C76.0439 124.094 67.3028 132.808 67.3909 143.467ZM57.5492 143.548C57.417 127.559 70.5287 114.489 86.8349 114.354C103.141 114.219 116.467 127.071 116.599 143.06C116.731 159.049 103.62 172.119 87.3135 172.254C71.0072 172.389 57.6813 159.537 57.5492 143.548Z" fill="white"/>
<path d="M66.4458 29.1138C66.5339 39.773 75.4178 48.3411 86.2886 48.2512C97.1594 48.1614 105.901 39.4476 105.812 28.7885C105.724 18.1293 96.8404 9.56123 85.9696 9.65108C75.0988 9.74092 66.3577 18.4547 66.4458 29.1138ZM56.6041 29.1952C56.4719 13.2065 69.5836 0.135796 85.8898 0.00103103C102.196 -0.133734 115.522 12.7184 115.654 28.7071C115.786 44.6958 102.675 57.7665 86.3684 57.9013C70.0622 58.036 56.7362 45.1839 56.6041 29.1952Z" fill="white"/>
<path d="M9.84258 87.4858C9.93068 98.1449 18.8146 106.713 29.6854 106.623C40.5563 106.533 49.2974 97.8196 49.2093 87.1605C49.1212 76.5013 40.2372 67.9332 29.3664 68.0231C18.4956 68.1129 9.75449 76.8267 9.84258 87.4858ZM0.000908219 87.5671C-0.131233 71.5784 12.9804 58.5078 29.2867 58.373C45.5929 58.2383 58.9188 71.0904 59.051 87.0791C59.1831 103.068 46.0714 116.138 29.7652 116.273C13.459 116.408 0.13305 103.556 0.000908219 87.5671Z" fill="white"/>
<path d="M38.2279 68.4324C21.9217 68.5671 8.59577 55.715 8.46363 39.7263C8.33148 23.7376 21.4432 10.6669 37.7494 10.5321C54.0556 10.3974 67.3815 23.2495 67.5137 39.2382C67.5453 43.0634 66.8187 46.7214 65.4719 50.0754C62.0275 44.0234 59.437 39.5663 58.1481 37.3855L57.5218 37.0848C56.3123 27.4883 47.9287 20.0987 37.8291 20.1822C26.9583 20.272 18.2172 28.9858 18.3053 39.6449C18.3882 49.676 26.261 57.8548 36.2488 58.709L43.8769 67.1793L44.9168 67.6297C42.7697 68.1365 40.5307 68.4133 38.2279 68.4324Z" fill="white"/>
<path d="M39.1365 163.484C22.4906 163.622 8.88748 150.556 8.75314 134.301C8.61879 118.046 22.0041 104.757 38.65 104.619C41.9177 104.592 45.0679 105.074 48.0221 105.989L40.3915 114.483C39.8437 114.444 39.29 114.425 38.7311 114.43C27.6338 114.521 18.7104 123.381 18.8 134.218C18.8896 145.054 27.9581 153.765 39.0554 153.674C50.1527 153.582 59.0761 144.722 58.9865 133.886C58.9864 133.87 58.9858 133.853 58.9856 133.837L59.0413 133.885L67.431 124.545C68.4447 127.452 69.0066 130.564 69.0334 133.803C69.1677 150.058 55.7824 163.347 39.1365 163.484Z" fill="white"/>
<path d="M137.198 57.8124C146.828 56.4838 154.201 48.3328 154.121 38.5389C154.032 27.8798 145.149 19.3117 134.278 19.4015C123.407 19.4914 114.666 28.2052 114.754 38.8643C114.758 39.3271 114.779 39.7859 114.816 40.2402L105.501 32.9275C108.215 19.8012 119.994 9.8689 134.198 9.75151C150.504 9.61675 163.83 22.4689 163.962 38.4576C164.06 50.3113 156.879 60.561 146.513 65.1247L137.198 57.8124Z" fill="white"/>
<path d="M133.001 162.708C123.566 162.786 115.128 158.516 109.667 151.805L115.006 142.102C118.203 148.637 125.04 153.124 132.922 153.058C143.793 152.969 152.534 144.255 152.446 133.596C152.358 123.032 143.631 114.523 132.893 114.46L131.079 112.885L135.457 104.925C150.398 106.246 162.163 118.496 162.287 133.514C162.419 149.503 149.308 162.574 133.001 162.708Z" fill="white"/>
</svg>
